<svg xmlns="http://www.w3.org/2000/svg" width="1200" height="900" viewBox="0 0 1200 900" role="img" aria-labelledby="title desc">
  <title id="title">사무 자동화 커뮤니티 일러스트</title>
  <desc id="desc">업무 자동화 흐름과 협업을 표현한 추상적인 대시보드</desc>
  <defs>
    <linearGradient id="bg" x1="0" y1="0" x2="1" y2="1">
      <stop offset="0" stop-color="#f6f2ff"/>
      <stop offset="1" stop-color="#ffffff"/>
    </linearGradient>
    <linearGradient id="accent" x1="0" y1="0" x2="1" y2="1">
      <stop offset="0" stop-color="#5b21b6"/>
      <stop offset="1" stop-color="#7c3aed"/>
    </linearGradient>
    <linearGradient id="panel" x1="0" y1="0" x2="1" y2="1">
      <stop offset="0" stop-color="#ffffff"/>
      <stop offset="1" stop-color="#f4f1ff"/>
    </linearGradient>
  </defs>
  <rect width="1200" height="900" fill="url(#bg)"/>
  <rect x="110" y="110" width="980" height="680" rx="40" fill="url(#panel)" stroke="#e3d7fb" stroke-width="2"/>
  <rect x="160" y="170" width="540" height="140" rx="24" fill="#ffffff" stroke="#e7def6" stroke-width="2"/>
  <rect x="190" y="210" width="220" height="16" rx="8" fill="#ede7ff"/>
  <rect x="190" y="240" width="310" height="16" rx="8" fill="#ede7ff"/>
  <rect x="190" y="270" width="180" height="16" rx="8" fill="#ede7ff"/>
  <rect x="760" y="170" width="290" height="200" rx="24" fill="#ffffff" stroke="#e7def6" stroke-width="2"/>
  <rect x="790" y="210" width="160" height="16" rx="8" fill="#ede7ff"/>
  <rect x="790" y="240" width="210" height="16" rx="8" fill="#ede7ff"/>
  <rect x="190" y="360" width="270" height="220" rx="24" fill="#ffffff" stroke="#e7def6" stroke-width="2"/>
  <rect x="220" y="400" width="150" height="16" rx="8" fill="#ede7ff"/>
  <rect x="220" y="430" width="190" height="16" rx="8" fill="#ede7ff"/>
  <rect x="220" y="460" width="130" height="16" rx="8" fill="#ede7ff"/>
  <rect x="520" y="360" width="530" height="220" rx="24" fill="#ffffff" stroke="#e7def6" stroke-width="2"/>
  <rect x="550" y="400" width="210" height="16" rx="8" fill="#ede7ff"/>
  <rect x="550" y="430" width="260" height="16" rx="8" fill="#ede7ff"/>
  <rect x="550" y="460" width="160" height="16" rx="8" fill="#ede7ff"/>
  <rect x="190" y="620" width="380" height="120" rx="24" fill="#ffffff" stroke="#e7def6" stroke-width="2"/>
  <rect x="220" y="655" width="220" height="16" rx="8" fill="#ede7ff"/>
  <rect x="220" y="680" width="160" height="16" rx="8" fill="#ede7ff"/>
  <rect x="620" y="620" width="430" height="120" rx="24" fill="#ffffff" stroke="#e7def6" stroke-width="2"/>
  <rect x="650" y="655" width="240" height="16" rx="8" fill="#ede7ff"/>
  <rect x="650" y="680" width="180" height="16" rx="8" fill="#ede7ff"/>
  <circle cx="350" cy="520" r="26" fill="url(#accent)"/>
  <circle cx="690" cy="470" r="22" fill="#7c3aed"/>
  <circle cx="860" cy="660" r="18" fill="#5b21b6"/>
  <path d="M350 520 C420 520, 520 500, 600 480" fill="none" stroke="#5b21b6" stroke-width="4" stroke-linecap="round" stroke-dasharray="8 10"/>
  <path d="M600 480 C690 460, 780 520, 860 660" fill="none" stroke="#7c3aed" stroke-width="4" stroke-linecap="round" stroke-dasharray="8 10"/>
  <rect x="770" y="520" width="160" height="64" rx="32" fill="#ede7ff"/>
  <rect x="800" y="548" width="100" height="10" rx="5" fill="#c4b5fd"/>
</svg>
